<?xml version="1.0" standalone="no"?><!DOCTYPE svg PUBLIC "-//W3C//DTD SVG 1.1//EN" "http://www.w3.org/Graphics/SVG/1.1/DTD/svg11.dtd"><svg t="1510035358165" class="icon" style="" viewBox="0 0 1024 1024" version="1.1" xmlns="http://www.w3.org/2000/svg" p-id="6549" xmlns:xlink="http://www.w3.org/1999/xlink" width="128" height="128"><defs><style type="text/css"></style></defs><path d="M402.957003 469.742571c30.218232-30.227442 66.279542-45.070498 108.166535-45.070498 41.896202 0 77.958536 14.843056 107.653859 45.070498 30.217209 29.695323 45.069475 65.757656 45.069475 107.643626 0 41.895179-14.852266 77.948303-45.069475 108.175745-29.696346 29.695323-65.757656 44.547589-107.653859 44.547589-41.886993 0-77.948303-14.853289-108.166535-44.547589-29.695323-30.227442-44.547589-66.280566-44.547589-108.175745C358.409414 535.500227 373.261681 499.437893 402.957003 469.742571L402.957003 469.742571zM884.436896 204.072839c37.649482 0 69.463048 13.265118 95.985098 39.776935 26.511817 26.511817 39.766702 58.326407 39.766702 95.974865l0 475.123115c0 37.649482-13.254885 69.463048-39.766702 95.985098-26.52205 26.511817-58.335616 39.766702-95.985098 39.766702L137.81939 950.699554c-37.648458 0-69.472258-13.254885-95.984075-39.766702-26.511817-26.52205-39.767725-58.335616-39.767725-95.985098L2.06759 339.824639c0-37.648458 13.255908-69.463048 39.767725-95.974865 26.511817-26.511817 58.335616-39.776935 95.984075-39.776935l118.78129 0 27.043936-72.114434c6.888897-17.493419 19.0908-32.345686 36.58422-44.537356 18.026562-12.734022 36.594453-19.0908 55.152111-19.0908L646.876362 68.330248c18.557658 0 37.116339 6.356778 54.619992 19.0908 18.025539 12.19167 30.227442 27.043936 37.116339 44.537356l27.043936 72.114434L884.436896 204.072839zM343.034239 745.484705c46.657646 46.133713 102.873995 69.463048 168.089299 69.463048 65.224514 0 121.432677-23.329335 167.56639-69.463048 46.666856-46.666856 69.995167-102.872972 69.995167-168.098509 0-65.225537-23.328311-121.432677-69.995167-167.56639-46.133713-46.666856-102.341876-69.995167-167.56639-69.995167-65.214281 0-121.431653 23.328311-168.089299 69.995167-46.133713 46.133713-69.472258 102.340853-69.472258 167.56639C273.561981 642.611733 296.899502 698.818873 343.034239 745.484705z" p-id="6550" fill="#ffffff"></path></svg>