<?xml version="1.0" standalone="no"?><!DOCTYPE svg PUBLIC "-//W3C//DTD SVG 1.1//EN" "http://www.w3.org/Graphics/SVG/1.1/DTD/svg11.dtd"><svg class="icon" width="200px" height="200.00px" viewBox="0 0 1024 1024" version="1.1" xmlns="http://www.w3.org/2000/svg"><path d="M512 24C245.799 24 30 239.799 30 506s215.799 482 482 482 482-215.799 482-482S778.201 24 512 24z m0 880.004c-219.812 0-398.004-178.192-398.004-398.004S292.188 107.996 512 107.996 910.005 286.188 910.005 506 731.812 904.004 512 904.004z" fill="#f52b11" /><path d="M539.566 664.005c-8.322-4.843-17.684-7.282-28.087-7.282-10.402 0.699-20.122 3.3-29.126 7.802-9.021 4.52-15.961 11.622-20.805 21.325-4.86 9.004-7.281 18.545-7.281 28.605 0 10.044 2.421 19.586 7.281 28.605 4.844 9.006 11.605 15.946 20.285 20.804 8.663 4.846 18.544 7.282 29.646 7.282 10.403 0.683 19.765-1.396 28.087-6.241 8.321-4.859 15.245-12.141 20.805-21.845 5.542-9.719 8.662-19.422 9.361-29.125 0-9.021-2.959-18.383-8.843-28.086-5.899-9.703-13.001-16.985-21.323-21.844zM548.912 256.197c-11.153-10.297-23.644-15.471-37.483-15.471-16.146 1.04-29.031 6.72-38.636 17.019-9.623 10.321-15.966 22.432-19.03 36.356-3.081 13.923-3.856 28.113-2.307 42.544l29.986 245.987c0.757 10.321 3.64 20.111 8.65 29.393 4.992 9.284 12.109 13.926 21.336 13.926 8.453 1.038 15.372-3.603 20.761-13.926 5.369-10.296 8.829-20.111 10.38-29.393l29.985-245.987c1.532-15.471 0.758-30.167-2.307-44.091-3.079-13.924-10.198-26.034-21.335-36.357z" fill="#f52b11" /></svg>