<?xml version="1.0" standalone="no"?><!DOCTYPE svg PUBLIC "-//W3C//DTD SVG 1.1//EN" "http://www.w3.org/Graphics/SVG/1.1/DTD/svg11.dtd"><svg t="1509547552203" class="icon" style="" viewBox="0 0 1024 1024" version="1.1" xmlns="http://www.w3.org/2000/svg" p-id="15167" xmlns:xlink="http://www.w3.org/1999/xlink" width="200" height="200"><defs><style type="text/css"></style></defs><path d="M905.727805 927.192164L905.727805 230.05356c0-10.17678-5.350868-19.609617-14.0766-24.837688L671.392732 73.343425c-4.497431-2.685155-9.631358-4.110621-14.869662-4.110621L145.824715 69.232804c-15.991206 0-28.947286 12.957103-28.947286 28.948309l0 829.011051c0 15.991206 12.95608 28.948309 28.947286 28.948309l730.959897 0C892.762515 956.139449 905.727805 943.18337 905.727805 927.192164zM847.83528 898.243855L174.772001 898.243855 174.772001 127.127376l473.751884 0 199.311395 119.330806L847.83528 898.243855zM540.248879 300.409954c0-15.992229-12.955056-28.947286-28.946262-28.947286-15.97995 0-28.947286 12.955056-28.947286 28.947286l0 183.329399L299.023886 483.739353c-15.978926 0-28.946262 12.957103-28.946262 28.948309 0 15.990183 12.967336 28.946262 28.946262 28.946262l183.331445 0 0 183.330422c0 15.990183 12.966313 28.946262 28.947286 28.946262 15.991206 0 28.946262-12.95608 28.946262-28.946262L540.248879 541.633924l183.332469 0c15.990183 0 28.946262-12.95608 28.946262-28.946262 0-15.990183-12.95608-28.948309-28.946262-28.948309L540.248879 483.739353 540.248879 300.409954z" fill="#777" p-id="15168"></path></svg>