<?xml version="1.0" standalone="no"?><!DOCTYPE svg PUBLIC "-//W3C//DTD SVG 1.1//EN" "http://www.w3.org/Graphics/SVG/1.1/DTD/svg11.dtd"><svg t="1509366769567" class="icon" style="" viewBox="0 0 1362 1024" version="1.1" xmlns="http://www.w3.org/2000/svg" p-id="26722" xmlns:xlink="http://www.w3.org/1999/xlink" width="266.015625" height="200"><defs><style type="text/css"></style></defs><path d="M650.388 79.807h53.954v215.815h-53.954z" fill="#01458e" p-id="26723"></path><path d="M542.478 79.807h53.954v215.815h-53.954z" fill="#01458e" p-id="26724"></path><path d="M137.825 79.807h350.7v215.815h-350.7z" fill="#01458e" p-id="26725"></path><path d="M2.939 187.715l134.885 161.862v-323.723l-134.885 161.862z" fill="#01458e" p-id="26726"></path><path d="M1092.133 511.438l-225.932-80.931v-294.498l225.932 80.931v294.498zM1139.343 511.438l225.932-80.931v-294.498l-225.932 80.931v294.498zM1365.276 96.667l-249.537-96.667-249.537 91.047 249.537 91.047 249.537-85.426zM228.871 1009.387l-225.932-79.807v-294.498l225.932 80.931v293.374zM274.957 1009.387l227.056-79.807v-294.498l-227.056 80.931v293.374zM502.013 594.617l-249.537-96.667-249.537 91.047 249.537 92.171 249.537-86.551z" fill="#01458e" p-id="26727"></path><path d="M650.388 754.231h53.954v215.815h-53.954z" fill="#01458e" p-id="26728"></path><path d="M758.294 754.231h53.954v215.815h-53.954z" fill="#01458e" p-id="26729"></path><path d="M866.201 754.231h350.7v215.815h-350.7z" fill="#01458e" p-id="26730"></path><path d="M1216.902 700.277v323.723l134.885-161.862-134.885-161.862z" fill="#01458e" p-id="26731"></path></svg>