<?xml version="1.0" standalone="no"?><!DOCTYPE svg PUBLIC "-//W3C//DTD SVG 1.1//EN" "http://www.w3.org/Graphics/SVG/1.1/DTD/svg11.dtd"><svg class="icon" width="200px" height="200.00px" viewBox="0 0 1024 1024" version="1.1" xmlns="http://www.w3.org/2000/svg"><path d="M151.552 556.544v327.68c0 36.352 29.184 65.536 65.536 65.536h567.808c35.84 0 65.536-29.184 65.536-65.536v-316.928h-43.52v316.928c0 11.776-9.728 21.504-21.504 21.504h-567.808c-11.776 0-21.504-9.728-21.504-22.016v-327.68h-44.544v0.512z m392.704 370.688V305.152h-43.52v622.08h43.52z m-458.24-600.064h742.4c36.352 0 65.536 29.184 65.536 65.536v152.576l22.016-22.016h-742.4c-36.352 0-65.536-29.184-65.536-65.536v-152.576l-22.016 22.016z m0-44.032h-22.016v174.592c0 60.416 48.64 109.056 109.056 109.056h764.416v-174.592c0-60.416-48.64-109.056-109.056-109.056h-742.4z m370.688-21.504h131.072l-22.016-22.016v65.536l22.016-22.016h-131.072l22.016 22.016v-65.536l-22.016 22.016z m0-44.032h-22.016V327.168h175.104V217.6H456.704z m94.72 33.792c1.024-1.536 2.56-4.096 5.12-7.68 4.096-6.144 8.704-13.312 13.824-20.992 14.848-21.504 30.208-43.008 45.568-62.976 8.192-10.752 15.872-20.48 23.552-29.696 28.16-33.792 51.712-54.272 57.344-54.272 33.792 0 93.696 37.888 124.416 78.336 5.12 6.656 2.048 25.6-10.24 52.736-5.12 10.752-0.512 24.064 10.24 29.184s24.064 0.512 29.184-10.24c18.944-40.448 24.064-73.216 6.144-97.28-37.888-50.688-109.568-96.256-159.232-96.256-25.088 0-52.736 24.576-90.624 70.144-8.192 9.728-16.384 19.968-24.576 31.232-15.872 20.48-31.744 42.496-46.592 64.512-5.12 7.68-10.24 14.848-14.336 21.504-2.56 4.096-4.608 6.656-5.632 8.192-6.656 10.24-3.584 23.552 6.656 30.208s23.04 3.584 29.184-6.656z m-13.312-23.552c-1.024-1.536-2.56-4.096-5.632-8.192-4.096-6.656-9.216-13.824-14.336-21.504-15.36-22.016-30.72-44.032-46.592-64.512-8.704-11.264-16.896-21.504-24.576-31.232-37.888-45.568-66.048-70.144-90.624-70.144-49.664 0-121.344 45.056-159.232 96.256-17.92 24.064-13.312 56.832 5.632 96.256 6.144 13.312 13.824 27.136 23.04 41.472 8.192 12.8 16.896 25.6 25.6 37.376 5.12 7.168 9.216 12.288 11.776 15.36l33.792-27.648c-2.048-2.56-5.632-7.168-10.752-13.824-8.192-10.752-16.384-22.528-24.064-34.816-8.192-12.8-14.848-25.088-20.48-36.864-12.288-26.112-14.848-45.056-10.24-51.712 30.72-40.96 90.624-78.336 124.416-78.336 5.632 0 29.184 20.992 57.344 54.272 7.68 9.216 15.36 18.944 23.552 29.696 15.36 19.968 30.72 41.472 45.568 62.976 5.12 7.68 9.728 14.336 13.824 20.992 2.56 3.584 4.096 6.144 5.12 7.68l36.864-23.552z" fill="#10458e" /></svg>