<?xml version="1.0" standalone="no"?><!DOCTYPE svg PUBLIC "-//W3C//DTD SVG 1.1//EN" "http://www.w3.org/Graphics/SVG/1.1/DTD/svg11.dtd"><svg t="1522304933597" class="icon" style="" viewBox="0 0 1024 1024" version="1.1" xmlns="http://www.w3.org/2000/svg" p-id="5313" xmlns:xlink="http://www.w3.org/1999/xlink" width="200" height="200"><defs><style type="text/css"></style></defs><path d="M853.333333 967.111111H170.666667l-113.777778-398.222222 56.888889-398.222222h113.777778l-56.888889 398.222222h170.666666l56.888889 113.777778h227.555556l56.888889-113.777778h170.666666l-56.888889-398.222222h113.777778l56.888889 398.222222zM637.155556 263.793778l-66.616889 61.155555V111.445333a59.676444 59.676444 0 0 0-118.897778 0v213.504L384.967111 263.793778a63.260444 63.260444 0 0 0-84.081778 0 51.2 51.2 0 0 0 0 77.141333L469.048889 494.933333a63.260444 63.260444 0 0 0 84.081778 0l168.106666-154.282666a51.2 51.2 0 0 0 0-77.141334 63.260444 63.260444 0 0 0-84.081777 0.284445z" fill="#777" p-id="5314"></path></svg>