<?xml version="1.0" standalone="no"?><!DOCTYPE svg PUBLIC "-//W3C//DTD SVG 1.1//EN" "http://www.w3.org/Graphics/SVG/1.1/DTD/svg11.dtd"><svg t="1509547293971" class="icon" style="" viewBox="0 0 1024 1024" version="1.1" xmlns="http://www.w3.org/2000/svg" p-id="13965" xmlns:xlink="http://www.w3.org/1999/xlink" width="200" height="200"><defs><style type="text/css"></style></defs><path d="M854.274946 65.185628 173.623851 65.185628c-59.328223 0-107.473757 48.112788-107.473757 107.472733l0 680.652118c0 59.326177 48.145533 107.47171 107.473757 107.47171l680.651095 0c59.398832 0 107.47171-48.146557 107.47171-107.47171l0-680.652118C961.747679 113.298416 913.673777 65.185628 854.274946 65.185628L854.274946 65.185628zM908.010801 853.310479c0 29.628808-24.072255 53.735855-53.735855 53.735855L173.623851 907.046335c-29.592992 0-53.738925-24.107047-53.738925-53.735855l0-680.652118c0-29.629831 24.145933-53.736878 53.738925-53.736878l680.651095 0c29.662577 0 53.735855 24.107047 53.735855 53.736878L908.010801 853.310479 908.010801 853.310479zM908.010801 853.310479" p-id="13966" fill="#777"></path><path d="M775.329942 251.765047 381.292588 251.765047l0 65.323774 394.037355 0L775.329942 251.765047 775.329942 251.765047 775.329942 251.765047zM775.329942 480.319463 381.292588 480.319463l0 65.323774 394.037355 0L775.329942 480.319463 775.329942 480.319463 775.329942 480.319463zM775.329942 708.958814 381.292588 708.958814l0 65.278749 394.037355 0L775.329942 708.958814 775.329942 708.958814 775.329942 708.958814zM316.052724 708.958814l-63.484893 0 0 65.278749 63.484893 0L316.052724 708.958814 316.052724 708.958814 316.052724 708.958814zM316.052724 480.319463l-63.484893 0 0 65.323774 63.484893 0L316.052724 480.319463 316.052724 480.319463 316.052724 480.319463zM316.052724 251.765047l-63.484893 0 0 65.323774 63.484893 0L316.052724 251.765047 316.052724 251.765047 316.052724 251.765047zM316.052724 251.765047" p-id="13967" fill="#777"></path></svg>