<?xml version="1.0" standalone="no"?><!DOCTYPE svg PUBLIC "-//W3C//DTD SVG 1.1//EN" "http://www.w3.org/Graphics/SVG/1.1/DTD/svg11.dtd"><svg class="icon" width="200px" height="200.00px" viewBox="0 0 1024 1024" version="1.1" xmlns="http://www.w3.org/2000/svg"><path d="M952.670676 947.637288 844.475483 839.442095c24.515491-37.024956 38.963198-81.317564 38.963198-129.048665 0-129.391003-104.893637-234.28464-234.278599-234.28464-129.391003 0-234.278599 104.887595-234.278599 234.28464 0 129.384962 104.887595 234.278599 234.278599 234.278599 47.732107 0 92.023709-14.447707 129.047658-38.963198l108.197207 108.195193c13.466 13.460966 35.498527 13.460966 48.9605 0l17.306237-17.306237C966.131642 983.131787 966.131642 961.103288 952.670676 947.637288L952.670676 947.637288zM775.673425 770.645071c-13.861704 29.035371-37.226331 52.399998-66.261702 66.261702-18.323185 8.750786-38.596694 14.057038-60.251641 14.057038-77.635408 0-140.571388-62.942022-140.571388-140.571388 0-77.635408 62.934974-140.571388 140.571388-140.571388s140.571388 62.934974 140.571388 140.571388C789.730463 732.054419 784.424211 752.315845 775.673425 770.645071L775.673425 770.645071zM775.673425 770.645071" fill="#10458e" /><path d="M343.501815 754.260129 228.917975 754.260129c-19.634141 0-35.699903-16.065762-35.699903-35.701917 0-19.634141 16.065762-35.699903 35.699903-35.699903l112.657681 0c2.966266-33.573374 11.326382-65.599176 24.226516-95.197392L228.917975 587.660918c-19.634141 0-35.699903-16.065762-35.699903-35.699903 0-19.642196 16.065762-35.701917 35.699903-35.701917l180.420639 0c34.939709-42.868882 81.215869-76.129117 134.266312-95.202426L228.917975 421.056672c-19.634141 0-35.699903-16.065762-35.699903-35.701917 0-19.634141 16.065762-35.699903 35.699903-35.699903l549.585787 0c19.634141 0 35.699903 16.065762 35.699903 35.699903 0 19.636155-16.065762 35.701917-35.699903 35.701917l-26.914883 0c96.242532 34.612474 170.202831 115.900838 194.59951 216.56961L946.188389 124.623431c0-59.501516-48.681594-108.185124-108.18311-108.185124L169.418472 16.438307c-59.501516 0-108.185124 48.683608-108.185124 108.185124l0 772.446378c0 59.501516 48.683608 108.185124 108.185124 108.185124l392.137093 0C447.415758 972.016849 360.738577 874.361666 343.501815 754.260129L343.501815 754.260129zM228.917975 183.043559l549.585787 0c19.634141 0 35.699903 16.065762 35.699903 35.701917 0 19.634141-16.065762 35.699903-35.699903 35.699903L228.917975 254.445379c-19.634141 0-35.699903-16.065762-35.699903-35.699903C193.218072 199.109321 209.283834 183.043559 228.917975 183.043559L228.917975 183.043559zM228.917975 183.043559" fill="#10458e" /></svg>