<?xml version="1.0" standalone="no"?><!DOCTYPE svg PUBLIC "-//W3C//DTD SVG 1.1//EN" "http://www.w3.org/Graphics/SVG/1.1/DTD/svg11.dtd"><svg class="icon" width="200px" height="200.00px" viewBox="0 0 1024 1024" version="1.1" xmlns="http://www.w3.org/2000/svg"><path d="M689.779 958.082H335.613c-58.502 0-106.072-47.628-106.072-106.101V170.656c0-58.502 47.598-106.102 106.072-106.102h354.166c58.502 0 106.072 47.628 106.072 106.102V851.98c0 58.474-47.569 106.102-106.072 106.102zM335.613 109.094c-33.931 0-61.504 27.602-61.504 61.533v681.324c0 33.961 27.602 61.533 61.504 61.533h354.166c33.931 0 61.504-27.602 61.504-61.533V170.656c0-33.961-27.602-61.534-61.504-61.534H335.613v-0.028z" fill="#10458e" /><path d="M512.696 902.55c-17.233 0-31.257-14.024-31.257-31.257 0-17.232 14.024-31.227 31.257-31.227 17.233 0 31.257 14.024 31.257 31.257 0 17.233-14.024 31.227-31.257 31.227z m0-44.567c-7.339 0-13.311 5.971-13.311 13.311 0 7.339 5.973 13.311 13.311 13.311s13.311-5.972 13.311-13.311c0.001-7.34-5.972-13.311-13.311-13.311zM546.954 168.072h-68.545c-12.301 0-22.284-9.984-22.284-22.284 0-12.301 9.983-22.284 22.284-22.284h68.545c12.3 0 22.284 9.983 22.284 22.284 0 12.3-9.983 22.284-22.284 22.284zM773.567 805.57H251.826c-12.3 0-22.284-9.982-22.284-22.284 0-12.3 9.984-22.284 22.284-22.284h521.741c12.3 0 22.284 9.984 22.284 22.284 0 12.302-9.984 22.284-22.284 22.284zM773.567 255.692H251.826c-12.3 0-22.284-9.983-22.284-22.284 0-12.3 9.984-22.284 22.284-22.284h521.741c12.3 0 22.284 9.984 22.284 22.284 0 12.301-9.984 22.284-22.284 22.284z" fill="#10458e" /></svg>