<?xml version="1.0" standalone="no"?><!DOCTYPE svg PUBLIC "-//W3C//DTD SVG 1.1//EN" "http://www.w3.org/Graphics/SVG/1.1/DTD/svg11.dtd"><svg t="1509366737278" class="icon" style="" viewBox="0 0 1024 1024" version="1.1" xmlns="http://www.w3.org/2000/svg" p-id="26078" xmlns:xlink="http://www.w3.org/1999/xlink" width="200" height="200"><defs><style type="text/css"></style></defs><path d="M551.47902 824.287829c0 77.093435-59.129739 37.292093-59.129739 37.292093L236.302453 646.160311 196.757752 646.160311C172.255169 646.160311 152.40984 625.947656 152.40984 601.013282L152.40984 420.467738c0-24.939239 19.845329-45.140947 44.347912-45.140947l47.298683 0 248.292846-210.63586c0 0 59.134604-40.124881 59.134604 37.610766l0 621.990996-0.004865 0L551.47902 824.287829zM684.493566 631.103598c73.910349-60.179415 68.978209-174.283975 0-225.687707-27.087244-16.292485-44.333317 37.61928-44.333317 37.61928s68.968478 86.514979 0 150.457661C626.604464 611.047847 652.475397 647.409462 684.493566 631.103598L684.493566 631.103598 684.493566 631.103598zM721.44874 277.531744c-9.854551-8.784197-57.884237 23.822666-29.557572 52.652883 146.565466 124.135476 149.022414 240.739555 0 368.628567-22.178213 21.313416 7.378142 61.448028 29.557572 52.652883C924.662671 657.424566 916.058487 365.295875 721.44874 277.531744L721.44874 277.531744 721.44874 277.531744zM721.44874 277.531744" fill="#d81e06" p-id="26079"></path></svg>