<?xml version="1.0" standalone="no"?><!DOCTYPE svg PUBLIC "-//W3C//DTD SVG 1.1//EN" "http://www.w3.org/Graphics/SVG/1.1/DTD/svg11.dtd"><svg t="1522304407547" class="icon" style="" viewBox="0 0 1024 1024" version="1.1" xmlns="http://www.w3.org/2000/svg" p-id="3436" xmlns:xlink="http://www.w3.org/1999/xlink" width="200" height="200"><defs><style type="text/css"></style></defs><path d="M702.912 457.472 321.088 457.472c-15.04 0-27.264 12.224-27.264 27.264C293.76 499.84 305.984 512 321.088 512l381.888 0c15.04 0 27.264-12.16 27.264-27.264C730.24 469.696 718.016 457.472 702.912 457.472L702.912 457.472zM839.36 839.36c0 30.144-24.448 54.528-54.528 54.528L239.232 893.888c-30.144 0-54.528-24.448-54.528-54.528L184.704 293.76c0-30.144 24.448-54.528 54.528-54.528l81.856 0 0 109.12 381.888 0L702.976 239.232l81.856 0c30.144 0 54.528 24.448 54.528 54.528L839.36 839.36 839.36 839.36zM375.616 184.64l60.672 0c0-30.144 33.856-54.528 75.712-54.528s75.712 24.448 75.712 54.528l60.672 0L648.384 293.76 375.616 293.76 375.616 184.64 375.616 184.64zM784.768 184.64l-81.856 0L702.912 130.112 629.504 130.112C605.824 97.664 562.432 75.584 512 75.584S418.176 97.664 394.496 130.112L321.088 130.112l0 54.528L239.232 184.64c-60.224 0-109.12 48.896-109.12 109.12l0 545.536c0 60.224 48.896 109.12 109.12 109.12l545.536 0c60.224 0 109.12-48.896 109.12-109.12L893.888 293.76C893.888 233.536 844.992 184.64 784.768 184.64L784.768 184.64zM702.912 730.24 321.088 730.24c-15.04 0-27.264 12.224-27.264 27.264 0 15.104 12.224 27.264 27.264 27.264l381.888 0c15.04 0 27.264-12.16 27.264-27.264C730.24 742.464 718.016 730.24 702.912 730.24L702.912 730.24zM702.912 593.856 321.088 593.856c-15.04 0-27.264 12.224-27.264 27.264 0 15.104 12.224 27.264 27.264 27.264l381.888 0c15.04 0 27.264-12.16 27.264-27.264C730.24 606.08 718.016 593.856 702.912 593.856L702.912 593.856z" p-id="3437" fill="#01458E"></path></svg>