<?xml version="1.0" standalone="no"?><!DOCTYPE svg PUBLIC "-//W3C//DTD SVG 1.1//EN" "http://www.w3.org/Graphics/SVG/1.1/DTD/svg11.dtd"><svg t="1509366862348" class="icon" style="" viewBox="0 0 1140 1024" version="1.1" xmlns="http://www.w3.org/2000/svg" p-id="28863" xmlns:xlink="http://www.w3.org/1999/xlink" width="222.65625" height="200"><defs><style type="text/css"></style></defs><path d="M17.542302 181.672767v688.885572c0 64.284441 11.716534 76.544952 68.910256 76.544953h780.978906c56.722742 0 68.910256-11.734533 68.910256-76.544953V181.673767c0-62.769501-10.80957-76.544952-68.910256-76.544953H86.449558c-56.977731 0.001-68.909256 10.954564-68.909256 76.544953h0.002z m810.609726 586.821636H126.201975c76.715946-124.257053 213.148514-331.426804 247.823133-331.426805 33.555664 0 147.467129 167.384336 198.917081 226.30899 0 0 66.177365-98.21609 100.847984-98.21609 35.364592 0.004 153.2109 202.321945 154.362855 203.333905h-0.001z m-206.261788-433.736731c0-52.050928 37.887492-94.138252 84.748626-94.138252 46.860134 0 84.746626 42.089324 84.746625 94.138252 0 52.041928-37.886492 94.135252-84.746625 94.135252-46.861134 0-84.747626-42.089324-84.747626-94.136252zM448.442146 58.953653l-134.347652-28.318873c-44.590225-9.401626-62.261521-6.012761-73.173086 28.317873l207.521737 0.001h-0.000999z m632.9288 133.418688l-105.157813-22.166118c0.043998 2.836887 0.063997 5.659775 0.063997 8.438664v692.804417c0 32.14272-1.919924 68.529272-24.799013 93.43228-22.251114 24.225035-54.487831 26.255955-82.956697 26.255954h-63.409475l134.932628 28.444868c55.730781 11.748532 69.673226 2.740891 80.552792-60.928574l115.630397-676.801054c10.535581-61.673545 2.231911-77.442917-54.857816-89.476437l0.001-0.004z" p-id="28864" fill="#01458e"></path></svg>