<?xml version="1.0" standalone="no"?><!DOCTYPE svg PUBLIC "-//W3C//DTD SVG 1.1//EN" "http://www.w3.org/Graphics/SVG/1.1/DTD/svg11.dtd"><svg t="1559292302433" class="icon" style="" viewBox="0 0 1024 1024" version="1.1" xmlns="http://www.w3.org/2000/svg" p-id="2564" xmlns:xlink="http://www.w3.org/1999/xlink" width="200" height="200"><defs><style type="text/css"></style></defs><path d="M887.4496 1023.982933H136.533333c-75.4176 0-136.533333-61.115733-136.533333-136.516266V136.567467A136.533333 136.533333 0 0 1 136.533333 0h750.916267A136.567467 136.567467 0 0 1 1024 136.567467V887.466667a136.533333 136.533333 0 0 1-136.5504 136.516266z m68.266667-887.415466a68.266667 68.266667 0 0 0-68.266667-68.283734H136.533333c-37.700267 0-68.266667 30.583467-68.266666 68.283734V887.466667a68.266667 68.266667 0 0 0 68.266666 68.283733h750.916267a68.266667 68.266667 0 0 0 68.266667-68.283733V136.567467zM719.6672 546.423467H546.4064v173.2608c0 17.237333-15.394133 31.1296-34.423467 31.1296-19.029333 0-34.423467-13.892267-34.423466-31.1296V546.423467H304.298667c-17.186133 0-31.095467-15.4112-31.095467-34.389334 0-19.012267 13.909333-34.440533 31.095467-34.440533h173.2608V304.349867c0-17.2032 15.394133-31.1296 34.423466-31.1296 19.029333 0 34.423467 13.9264 34.423467 31.1296v173.243733h173.2608c17.2032 0 31.1296 15.4112 31.1296 34.440533 0 18.961067-13.9264 34.389333-31.1296 34.389334z" fill="#888888" p-id="2565"></path></svg>