<?xml version="1.0" standalone="no"?><!DOCTYPE svg PUBLIC "-//W3C//DTD SVG 1.1//EN" "http://www.w3.org/Graphics/SVG/1.1/DTD/svg11.dtd"><svg t="1509631631963" class="icon" style="" viewBox="0 0 1024 1024" version="1.1" xmlns="http://www.w3.org/2000/svg" p-id="16653" xmlns:xlink="http://www.w3.org/1999/xlink" width="200" height="200"><defs><style type="text/css"></style></defs><path d="M509.092 501.654c241.775 0 424.086-78.086 424.086-181.641 0-103.543-182.311-181.629-424.087-181.629-241.774 0-424.098 78.087-424.098 181.63C84.993 423.569 267.317 501.654 509.092 501.654zM509.092 184.22c222.908 0 378.251 71.563 378.251 135.794 0 64.232-155.342 135.805-378.251 135.805-222.92 0-378.264-71.573-378.264-135.805C130.828 255.784 286.172 184.22 509.092 184.22zM509.083 694.062c241.115 0 422.938-77.599 422.938-180.483 0-27.169-13.128-52.453-36.241-75.131-0.148-0.153-0.266-0.32-0.419-0.469-0.171-0.167-0.285-0.346-0.456-0.511l-0.114 0.126c-3.718-3.407-8.577-5.608-14.018-5.608-11.543 0-20.899 9.355-20.899 20.898 0 6.11 2.723 11.481 6.901 15.303l-0.083 0.091c13.949 14.024 21.811 31.155 21.811 45.301 0 64.786-155.814 136.967-379.42 136.967-223.596 0-379.41-72.181-379.41-136.967 0-16.14 4.537-29.952 22.323-45.67 0.214-0.204 0.43-0.382 0.636-0.595 0.137-0.118 0.24-0.233 0.379-0.354l-0.085-0.081c3.417-3.72 5.623-8.589 5.623-14.038 0-11.543-9.356-20.898-20.899-20.898-5.771 0-10.993 2.34-14.773 6.119l-0.123-0.119c-23.407 22.798-36.594 48.278-36.594 75.636C86.158 616.463 267.98 694.062 509.083 694.062zM895.576 629.53c-0.168-0.165-0.282-0.343-0.453-0.508l-0.114 0.125c-3.718-3.407-8.577-5.608-14.019-5.608-11.541 0-20.897 9.355-20.897 20.898 0 6.11 2.721 11.482 6.901 15.303l-0.084 0.091c13.949 14.024 21.811 31.155 21.811 45.301 0 64.788-155.813 136.967-379.42 136.967-223.595 0-379.41-72.18-379.41-136.967 0-16.14 4.538-29.952 22.322-45.67 0.214-0.202 0.43-0.382 0.635-0.595 0.138-0.118 0.241-0.233 0.379-0.354l-0.085-0.081c3.417-3.72 5.623-8.589 5.623-14.038 0-11.543-9.356-20.898-20.897-20.898-5.771 0-10.994 2.34-14.773 6.119l-0.123-0.119c-23.41 22.798-36.595 48.279-36.595 75.636 0 102.885 181.821 180.482 422.926 180.482 241.115 0 422.936-77.598 422.936-180.482 0-27.166-13.126-52.452-36.235-75.127C895.851 629.847 895.731 629.681 895.576 629.53z" p-id="16654" fill="#01458e"></path></svg>