<?xml version="1.0" standalone="no"?><!DOCTYPE svg PUBLIC "-//W3C//DTD SVG 1.1//EN" "http://www.w3.org/Graphics/SVG/1.1/DTD/svg11.dtd"><svg t="1509631688712" class="icon" style="" viewBox="0 0 1024 1024" version="1.1" xmlns="http://www.w3.org/2000/svg" p-id="18277" xmlns:xlink="http://www.w3.org/1999/xlink" width="200" height="200"><defs><style type="text/css"></style></defs><path d="M313.52567 245.910713l45.630247 0c8.392134 0 15.222703-6.287193 15.222703-13.945617L374.378619 115.937522c0-7.676843-6.830569-13.925151-15.222703-13.925151l-45.630247 0c-8.371668 0-15.22782 6.247284-15.22782 13.925151l0 116.027573C298.29785 239.622496 305.154002 245.910713 313.52567 245.910713z" p-id="18278" fill="#01458e"></path><path d="M257.331833 501.475296l382.965182 0 0 37.108153-382.965182 0 0-37.108153Z" p-id="18279" fill="#01458e"></path><path d="M257.331833 360.590592l382.965182 0 0 37.127595-382.965182 0 0-37.127595Z" p-id="18280" fill="#01458e"></path><path d="M535.846104 245.910713l45.654806 0c8.351202 0 15.202237-6.287193 15.202237-13.945617L596.703147 115.937522c0-7.676843-6.852058-13.925151-15.202237-13.925151l-45.654806 0c-8.371668 0-15.223726 6.247284-15.223726 13.925151l0 116.027573C520.622378 239.622496 527.47546 245.910713 535.846104 245.910713z" p-id="18281" fill="#01458e"></path><path d="M390.493645 147.168828l116.641557 0 0 49.5096-116.641557 0 0-49.5096Z" p-id="18282" fill="#01458e"></path><path d="M738.586598 566.870702c-118.794593 0-180.946119 36.000935-180.946119 71.600735l0 191.287651c0 35.55989 62.152549 71.640644 180.946119 71.640644 117.935016 0 179.88188-35.481096 180.845835-70.764694L919.432433 638.471436C919.432433 602.871637 857.279884 566.870702 738.586598 566.870702zM871.678826 829.759087c0 10.165524-45.324278 33.887808-133.092227 33.887808-87.768973 0-133.043109-23.762193-133.043109-33.887808l0-45.609781c30.316469 12.958126 74.985832 21.528316 133.043109 21.528316 58.157561 0 102.775758-8.571213 133.092227-21.528316L871.678826 829.759087zM871.678826 734.156706c0 10.125615-45.324278 33.80492-133.092227 33.80492-87.768973 0-133.043109-23.679305-133.043109-33.80492l0-45.728484c30.316469 13.075807 74.985832 21.687952 133.043109 21.687952 58.157561 0 102.775758-8.611122 133.092227-21.687952L871.678826 734.156706zM738.586598 672.39813c-87.819115 0-133.043109-23.719214-133.043109-33.886785 0-10.165524 45.274136-33.927717 133.043109-33.927717 87.767949 0 133.092227 23.762193 133.092227 33.927717C871.678826 648.678916 826.40469 672.39813 738.586598 672.39813z" p-id="18283" fill="#01458e"></path><path d="M718.508307 250.816442l0 266.487354 54.086849 0L772.595156 250.816442c0-91.481528-84.303035-103.646592-153.85511-103.646592l0 49.5096C658.343019 196.679451 718.508307 193.731306 718.508307 250.816442z" p-id="18284" fill="#01458e"></path><path d="M508.961804 852.007811 238.308571 852.007811c-30.189579 0-59.182914-22.272259-59.182914-54.131875l0-547.059494c0-57.085136 60.138682-54.136991 99.762121-54.136991l0-49.5096c-69.356624 0-153.85511 12.466939-153.85511 103.646592l0 547.059494c0 60.944024 55.480592 103.645568 113.27488 103.645568l270.653233 0L508.960781 852.007811z" p-id="18285" fill="#01458e"></path><path d="M257.331833 643.36284l252.495688 0 0 37.132712-252.495688 0 0-37.132712Z" p-id="18286" fill="#01458e"></path></svg>