<?xml version="1.0" standalone="no"?><!DOCTYPE svg PUBLIC "-//W3C//DTD SVG 1.1//EN" "http://www.w3.org/Graphics/SVG/1.1/DTD/svg11.dtd"><svg t="1509953904902" class="icon" style="" viewBox="0 0 1024 1024" version="1.1" xmlns="http://www.w3.org/2000/svg" p-id="5826" xmlns:xlink="http://www.w3.org/1999/xlink" width="128" height="128"><defs><style type="text/css"></style></defs><path d="M64.6 959.5h407.1v-407H64.6v407z m81.5-325.6h244.2v243.6H146.1V633.9z" p-id="5827" fill="#ffffff"></path><path d="M227.5 715.3h81.4v81.4h-81.4zM715.9 878.1h81.4v81.4h-81.4zM878.8 878.1h81.4v81.4h-81.4z" p-id="5828" fill="#ffffff"></path><path d="M878.8 633.9h-81.4v-81.4H553.1v407h81.4V715.3h81.4v81.4h244.3V552.5h-81.4zM64.6 471.1h407.1V64H64.6v407.1z m81.5-325.7h244.2v244.2H146.1V145.4z" p-id="5829" fill="#ffffff"></path><path d="M227.5 226.8h81.4v81.4h-81.4zM553.1 64v407.1h407.1V64H553.1z m325.7 325.7H634.5V145.4h244.2v244.3z" p-id="5830" fill="#ffffff"></path><path d="M715.9 226.8h81.4v81.4h-81.4z" p-id="5831" fill="#ffffff"></path></svg>