<?xml version="1.0" standalone="no"?><!DOCTYPE svg PUBLIC "-//W3C//DTD SVG 1.1//EN" "http://www.w3.org/Graphics/SVG/1.1/DTD/svg11.dtd"><svg class="icon" width="200px" height="196.36px" viewBox="0 0 1043 1024" version="1.1" xmlns="http://www.w3.org/2000/svg"><path d="M882.69312 3.072H120.32C84.992 3.072 56.832 31.744 56.832 66.56v889.344c0 35.32288 28.672 63.48288 63.48288 63.48288h444.928v-60.68224l2.17088-2.64704c-118.21568-30.30016-205.58848-137.55392-205.58848-265.20576 0-17.30048 1.67936-34.2016 4.74624-50.6112H249.344v-63.488h137.40544a273.75104 273.75104 0 0 1 40.57088-63.47776H248.32v-63.488h257.4592a272.52736 272.52736 0 0 1 129.82272-32.69632c108.69248-0.00512 202.5984 63.34976 246.79936 155.15136l0.29184-0.35328v1.00352c0.32768 0.68608 0.61952 1.38752 0.94208 2.07872H946.176V66.56c0-35.328-28.672-63.488-63.48288-63.488zM754.176 386.048H245.76V322.56h508.416v63.488z m1.536-128H247.296V194.56h508.416v63.488z" fill="#10458e" /><path d="M803.84512 837.37088c33.28-38.912 53.76-89.6 53.76-144.896 0-122.88-99.32288-222.208-222.20288-222.208s-222.208 99.328-222.208 222.208 99.328 222.20288 222.208 222.20288c44.53888 0 86.016-13.31712 120.832-35.32288l133.64224 130.304c12.27776 12.288 32.75776 12.288 45.056 0 11.76576-12.79488 11.76576-32.76288-0.52224-45.05088l-130.56512-127.23712z m-168.448 13.31712c-87.55712 0.512-158.72-70.65088-158.72-158.72 0-87.56224 71.16288-158.72 158.72-158.72 87.552 0 158.72 71.15776 158.72 158.72 0 87.552-71.168 158.72-158.72 158.72z" fill="#10458e" /></svg>