<?xml version="1.0" standalone="no"?><!DOCTYPE svg PUBLIC "-//W3C//DTD SVG 1.1//EN" "http://www.w3.org/Graphics/SVG/1.1/DTD/svg11.dtd"><svg class="icon" width="200px" height="196.36px" viewBox="0 0 1043 1024" version="1.1" xmlns="http://www.w3.org/2000/svg"><path d="M245.76 322.56h508.416v63.488H245.76zM247.296 194.56h508.42112v63.488H247.296z" fill="#707070" /><path d="M946.176 66.56c0-35.328-28.672-63.488-63.47776-63.488H120.32C84.992 3.072 56.832 31.744 56.832 66.56v889.344c0 35.32288 28.672 63.48288 63.48288 63.48288h444.928V955.904H120.32V66.56h762.368v506.33728c0.32768 0.68608 0.61952 1.38752 0.94208 2.07872H946.176V66.56z" fill="#707070" /><path d="M249.344 576.75776v63.488h117.23264a271.63648 271.63648 0 0 1 20.1728-63.488H249.344zM505.77408 449.792H248.32v63.488h179.00544a274.8672 274.8672 0 0 1 78.44864-63.488z" fill="#707070" /><path d="M882.688 574.976h0.94208c-0.32256-0.6912-0.60928-1.39264-0.94208-2.07872v2.07872z" fill="#707070" /><path d="M857.60512 692.47488c0-122.88-99.32288-222.208-222.20288-222.208s-222.208 99.328-222.208 222.208 99.328 222.20288 222.208 222.20288c44.53888 0 86.016-13.31712 120.832-35.32288l36.52096 35.60448 97.12128 94.69952c12.27776 12.288 32.75776 12.288 45.056 0 11.76576-12.79488 11.76576-32.76288-0.52224-45.05088l-94.26944-91.86816-36.29056-35.36896c33.27488-38.912 53.75488-89.6 53.75488-144.896z m-222.208 158.21312c-87.55712 0.512-158.72-70.65088-158.72-158.72 0-87.56224 71.16288-158.72 158.72-158.72 87.552 0 158.72 71.15776 158.72 158.72 0 87.552-71.168 158.72-158.72 158.72z" fill="#707070" /></svg>