<?xml version="1.0" standalone="no"?><!DOCTYPE svg PUBLIC "-//W3C//DTD SVG 1.1//EN" "http://www.w3.org/Graphics/SVG/1.1/DTD/svg11.dtd"><svg t="1509707726795" class="icon" style="" viewBox="0 0 1024 1024" version="1.1" xmlns="http://www.w3.org/2000/svg" p-id="5145" xmlns:xlink="http://www.w3.org/1999/xlink" width="200" height="200"><defs><style type="text/css"></style></defs><path d="M727.04 921.6c-124.928 0-225.28-100.352-225.28-225.28s100.352-225.28 225.28-225.28 225.28 100.352 225.28 225.28-100.352 225.28-225.28 225.28z m0-389.12c-90.112 0-163.84 73.728-163.84 163.84s73.728 163.84 163.84 163.84 163.84-73.728 163.84-163.84-73.728-163.84-163.84-163.84z m56.32 256L727.04 732.16 670.72 788.48 634.88 752.64l56.32-56.32-56.32-56.32 35.84-34.816 56.32 56.32 56.32-56.32 34.816 35.84-55.296 55.296 56.32 56.32-35.84 35.84zM266.24 747.52c-6.144 0-10.24-4.096-10.24-10.24v-40.96c0-6.144 4.096-10.24 10.24-10.24h195.584c0 3.072-1.024 7.168-1.024 10.24 0 17.408 2.048 34.816 5.12 51.2H266.24z m-10.24-419.84v-40.96c0-6.144 4.096-10.24 10.24-10.24h419.84c6.144 0 10.24 4.096 10.24 10.24v40.96c0 6.144-4.096 10.24-10.24 10.24H266.24c-6.144 0-10.24-4.096-10.24-10.24z m246.784 225.28H266.24c-6.144 0-10.24-4.096-10.24-10.24v-40.96c0-6.144 4.096-10.24 10.24-10.24h290.816c-21.504 17.408-38.912 37.888-54.272 61.44zM747.52 174.08c0-6.144-4.096-10.24-10.24-10.24H204.8c-6.144 0-10.24 4.096-10.24 10.24v675.84c0 6.144 4.096 10.24 10.24 10.24h312.32c19.456 24.576 41.984 45.056 68.608 61.44H153.6c-11.264 0-20.48-9.216-20.48-20.48V122.88c0-11.264 9.216-20.48 20.48-20.48h634.88c11.264 0 20.48 9.216 20.48 20.48v320.512a296.96 296.96 0 0 0-61.44-12.288V174.08z" p-id="5146" fill="#01458e"></path></svg>