<?xml version="1.0" standalone="no"?><!DOCTYPE svg PUBLIC "-//W3C//DTD SVG 1.1//EN" "http://www.w3.org/Graphics/SVG/1.1/DTD/svg11.dtd"><svg t="1559292890550" class="icon" style="" viewBox="0 0 1024 1024" version="1.1" xmlns="http://www.w3.org/2000/svg" p-id="3413" xmlns:xlink="http://www.w3.org/1999/xlink" width="200" height="200"><defs><style type="text/css"></style></defs><path d="M512 0C228.072727 0 0 228.072727 0 512s228.072727 512 512 512 512-228.072727 512-512S795.927273 0 512 0z m218.763636 665.6c18.618182 18.618182 18.618182 46.545455 0 65.163636-18.618182 18.618182-46.545455 18.618182-65.163636 0L512 577.163636l-153.6 153.6c-18.618182 18.618182-46.545455 18.618182-65.163636 0-18.618182-18.618182-18.618182-46.545455 0-65.163636L446.836364 512 293.236364 358.4c-18.618182-18.618182-18.618182-46.545455 0-65.163636 18.618182-18.618182 46.545455-18.618182 65.163636 0L512 446.836364l153.6-153.6c18.618182-18.618182 46.545455-18.618182 65.163636 0 18.618182 18.618182 18.618182 46.545455 0 65.163636L577.163636 512l153.6 153.6z" fill="#888888" p-id="3414"></path></svg>