<?xml version="1.0" standalone="no"?><!DOCTYPE svg PUBLIC "-//W3C//DTD SVG 1.1//EN" "http://www.w3.org/Graphics/SVG/1.1/DTD/svg11.dtd"><svg t="1555075726838" class="icon" style="" viewBox="0 0 1024 1024" version="1.1" xmlns="http://www.w3.org/2000/svg" p-id="2008" xmlns:xlink="http://www.w3.org/1999/xlink" width="200" height="200"><defs><style type="text/css"></style></defs><path d="M512.6 928.3c-73.3 0-133-59.7-133-133 0-11.6 9.4-21 21-21s21 9.4 21 21c0 50.2 40.8 91 91 91s91-40.9 91-91c0-11.6 9.4-21 21-21s21 9.4 21 21c0 73.3-59.6 133-133 133z m293.4-112H218c-57.9 0-105-47.1-105-105s47.1-105 105-105V406.2c0-131.4 85.6-244.9 210.3-281.6 3.7-43 39.8-76.8 83.7-76.8s80 33.8 83.7 76.8C720.4 161.3 806 274.7 806 406.2v200.1c57.9 0 105 47.1 105 105 0 57.8-47.1 105-105 105z m-588-168c-34.7 0-63 28.3-63 63s28.3 63 63 63h588c34.7 0 63-28.3 63-63s-28.3-63-63-63h-21c-11.6 0-21-9.4-21-21V406.2c0-117.7-80-218.5-194.6-245.2-10.6-2.5-17.6-12.6-16-23.4 0.4-2.7 0.7-4.2 0.7-5.9 0-23.2-18.8-42-42-42s-42 18.8-42 42c0 1.7 0.3 3.2 0.5 4.8 1.5 10.8-5.3 22-15.9 24.5C340 187.7 260 288.5 260 406.2v221.1c0 11.6-9.4 21-21 21h-21z" p-id="2009" fill="#01458e"></path></svg>