<?xml version="1.0" standalone="no"?><!DOCTYPE svg PUBLIC "-//W3C//DTD SVG 1.1//EN" "http://www.w3.org/Graphics/SVG/1.1/DTD/svg11.dtd"><svg t="1509451904877" class="icon" style="" viewBox="0 0 1024 1024" version="1.1" xmlns="http://www.w3.org/2000/svg" p-id="2869" xmlns:xlink="http://www.w3.org/1999/xlink" width="200" height="200"><defs><style type="text/css"></style></defs><path d="M470.4 912c-112 0-224-41.6-310.4-128-169.6-172.8-169.6-451.2 0-624 172.8-172.8 451.2-172.8 620.8 0 172.8 172.8 172.8 451.2 0 620.8-83.2 86.4-198.4 131.2-310.4 131.2zM470.4 108.8c-92.8 0-185.6 35.2-256 105.6-140.8 140.8-140.8 374.4 0 515.2 140.8 140.8 374.4 140.8 515.2 0 140.8-140.8 140.8-374.4 0-515.2-70.4-70.4-166.4-105.6-259.2-105.6z" p-id="2870" fill="#01458e"></path><path d="M905.6 976l-160-160c-19.2-19.2-19.2-51.2 0-70.4s51.2-19.2 70.4 0l160 160c19.2 19.2 19.2 51.2 0 70.4-19.2 22.4-51.2 22.4-70.4 0z" p-id="2871" fill="#01458e"></path></svg>