<?xml version="1.0" standalone="no"?><!DOCTYPE svg PUBLIC "-//W3C//DTD SVG 1.1//EN" "http://www.w3.org/Graphics/SVG/1.1/DTD/svg11.dtd"><svg t="1522302996021" class="icon" style="" viewBox="0 0 1024 1024" version="1.1" xmlns="http://www.w3.org/2000/svg" p-id="548" xmlns:xlink="http://www.w3.org/1999/xlink" width="200" height="200"><defs><style type="text/css"></style></defs><path d="M511.69352 64.593134l0 383.727545 383.730615 0L895.424134 64.593134 511.69352 64.593134zM831.659879 384.211569 575.890634 384.211569 575.890634 128.447441l255.768221 0L831.658855 384.211569z" p-id="549" fill="#01458E"></path><path d="M511.69352 895.726521l383.730615 0L895.424134 512 511.69352 512 511.69352 895.726521zM575.890634 575.854307l255.768221 0 0 255.763105L575.890634 831.617411 575.890634 575.854307z" p-id="550" fill="#01458E"></path><path d="M63.507918 895.726521l383.730615 0L447.238532 512 63.507918 512 63.507918 895.726521zM127.705032 575.854307l255.768221 0 0 255.763105L127.705032 831.617411 127.705032 575.854307z" p-id="551" fill="#01458E"></path></svg>