<?xml version="1.0" standalone="no"?><!DOCTYPE svg PUBLIC "-//W3C//DTD SVG 1.1//EN" "http://www.w3.org/Graphics/SVG/1.1/DTD/svg11.dtd"><svg t="1509465348500" class="icon" style="" viewBox="0 0 1024 1024" version="1.1" xmlns="http://www.w3.org/2000/svg" p-id="6113" xmlns:xlink="http://www.w3.org/1999/xlink" width="200" height="200"><defs><style type="text/css"></style></defs><path d="M814.440884 123.799572C647.450264-42.156056 377.621403-40.819845 210.616507 125.144348 43.62446 291.112824 42.443855 559.880997 209.421627 725.818066l301.748017 298.180506 302.32904-300.518875C980.516428 557.499801 981.422938 289.786606 814.440884 123.799572L814.440884 123.799572zM511.974796 785.980371c-201.983345 0-365.756211-162.730735-365.756211-363.487793 0-200.805596 163.772865-363.567738 365.756211-363.567738 202.046159 0 365.807603 162.762142 365.807603 363.567738C877.706738 623.249636 714.022382 785.980371 511.974796 785.980371L511.974796 785.980371z" p-id="6114" fill="#01458e"></path><path d="M804.337933 222.908987 403.067932 222.908987c-7.069353 0-12.812488 5.78168-12.812488 12.912419l0 37.886421c0.134192 0.608147 0.368314 1.18917 0.368314 1.831579L390.623758 520.731172l12.444174 0 0 1.016434 401.270001 0 0-1.016434L817.124725 520.731172 817.124725 235.821405C817.126153 228.690667 811.405859 222.908987 804.337933 222.908987L804.337933 222.908987z" p-id="6115" fill="#01458e"></path><path d="M373.158802 588.445351c-7.302048-19.165198-22.936852-34.216125-42.451806-40.480325-6.455495-2.067129-13.302147-3.206334-20.397196-3.206334-7.11789 0-13.965969 1.139205-20.408616 3.206334-19.514954 6.262773-35.149759 21.316554-42.451806 40.480325-1.570333 4.13283-2.736662 8.454101-3.484711 12.923839-0.613857 3.69171-1.006441 7.463364-1.006441 11.316389 0 0.545334 0.061386 1.063544 0.072806 1.583181 0.84798 36.730085 30.657179 66.377968 67.280196 66.377968 36.624444 0 66.420796-29.649311 67.280196-66.377968 0-0.519637 0.072806-1.039275 0.072806-1.583181 0-3.851598-0.392583-7.62468-1.017861-11.316389C375.906885 596.899452 374.727708 592.579609 373.158802 588.445351L373.158802 588.445351zM338.36451 614.267333c-0.84798 14.955279-13.033762 26.87696-28.056137 26.87696-15.022375 0-27.221006-11.923109-28.056137-26.87696-0.04711-0.519637-0.171309-1.026427-0.171309-1.583181 0-4.012914 0.8594-7.823113 2.369775-11.314962 2.332658-5.397662 6.319876-9.853125 11.289265-12.925267 4.259885-2.599615 9.219281-4.20992 14.568406-4.20992 5.337704 0 10.295673 1.610305 14.566978 4.20992 4.946548 3.069287 8.922346 7.524749 11.266424 12.925267 1.510375 3.490422 2.369775 7.30062 2.369775 11.314962C338.512978 613.240906 338.390206 613.747695 338.36451 614.267333L338.36451 614.267333z" p-id="6116" fill="#01458e"></path><path d="M612.331912 547.966453c4.405497-3.801633 9.19073-7.179276 14.322863-10.025861L382.081148 537.940592c-2.03715 0-3.854453-0.818001-5.314863-2.03144 0.012848-0.296936 0.085655-0.56532 0.085655-0.863683l-1.053551 0c-1.349059-1.510375-2.247004-3.491849-2.247004-5.696025l0-7.217821L373.551385 316.910537c-2.344079-2.64958-5.706018-4.345539-9.499086-4.345539l-102.955303 0c-2.809468 0-5.536137 0.927924-7.780285 2.659573-2.085688 1.610305-50.884494 40.183389-50.884494 114.804177l0 96.4684c-1.988612 2.27841-3.274858 5.26347-3.274858 8.542611l0 66.328003c0 7.127883 5.730287 12.898143 12.79964 12.898143l14.014507 0c-0.022841-0.521065-0.085655-1.040702-0.085655-1.584609 0-3.837322 0.32977-7.601838 0.84798-11.314962 0.57674-4.40978 1.448989-8.741044 2.676704-12.925267 4.712426-15.944588 13.943128-29.933399 26.190296-40.480325 6.062912-5.22207 12.861026-9.580458 20.237307-12.923839 5.460475-2.475416 11.230735-4.432621 17.269378-5.694598 5.54613-1.18917 11.303541-1.808738 17.206565-1.808738 5.890176 0 11.660435 0.619568 17.206565 1.808738 6.025795 1.261977 11.781779 3.219182 17.269378 5.694598 7.326316 3.316257 14.088741 7.650376 20.138805 12.823909-0.305501 0.024269-0.589589 0.098503-0.870821 0.098503l0.957903 0c12.247168 10.546926 21.475015 24.537164 26.188869 40.480325 1.239135 4.184223 2.112811 8.515487 2.689552 12.925267 0.502507 3.713123 0.846552 7.476212 0.846552 11.314962 0 0.545334-0.061386 1.063544-0.072806 1.584609l188.028797 0c-0.024269-0.521065-0.085655-1.040702-0.085655-1.584609 0-3.837322 0.342618-7.601838 0.84798-11.314962 0.588161-4.40978 1.448989-8.741044 2.689552-12.925267C590.839766 572.50219 600.083316 558.509097 612.331912 547.966453L612.331912 547.966453zM351.251232 413.949968l-122.223286 0c4.959397-42.386138 28.287404-67.675634 36.804319-75.56156L351.249804 338.388407 351.251232 413.949968 351.251232 413.949968 351.251232 413.949968z" p-id="6117" fill="#01458e"></path><path d="M729.878461 588.445351c-7.30062-19.165198-22.936852-34.216125-42.448951-40.480325-6.431227-2.067129-13.280733-3.206334-20.398623-3.206334s-13.954548 1.139205-20.398623 3.206334c-19.513527 6.262773-35.148331 21.316554-42.450379 40.480325-1.570333 4.13283-2.748082 8.454101-3.486139 12.923839-0.636699 3.69171-1.019289 7.463364-1.019289 11.316389 0 0.545334 0.062813 1.063544 0.074234 1.583181 0.846552 36.730085 30.657179 66.377968 67.278768 66.377968s66.420796-29.649311 67.280196-66.377968c0.012848-0.519637 0.071379-1.039275 0.071379-1.583181 0-3.851598-0.3883-7.62468-1.019289-11.316389C732.616551 596.899452 731.438801 592.579609 729.878461 588.445351L729.878461 588.445351zM695.087024 614.267333c-0.835132 14.955279-13.048038 26.87696-28.057565 26.87696-15.022375 0-27.221006-11.923109-28.056137-26.87696-0.024269-0.519637-0.14704-1.026427-0.14704-1.583181 0-4.012914 0.8594-7.823113 2.356927-11.314962 2.344079-5.397662 6.319876-9.853125 11.276417-12.925267 4.271305-2.599615 9.217854-4.20992 14.566978-4.20992 5.35198 0 10.284252 1.610305 14.555558 4.20992 4.967962 3.069287 8.958035 7.524749 11.289265 12.925267 1.511802 3.490422 2.369775 7.30062 2.369775 11.314962C695.244057 613.240906 695.108437 613.747695 695.087024 614.267333L695.087024 614.267333z" p-id="6118" fill="#01458e"></path><path d="M700.684546 534.657169c0.279805 0.111351 0.536768 0.271239 0.833704 0.385445 1.988612 0.916503 3.975797 1.831579 5.888748 2.89655 5.132133 2.845158 9.905945 6.225656 14.310015 10.024434 12.260017 10.545499 21.487863 24.537164 26.188869 40.480325 1.251984 4.185651 2.111384 8.516914 2.700972 12.925267 0.491086 3.714551 0.846552 7.474784 0.846552 11.314962 0 0.545334-0.084227 1.064971-0.084227 1.583181l26.998304 0c7.069353 0 12.785364-5.767404 12.785364-12.898143L791.152848 537.939164l0-2.89655c0-0.125627-0.035689-0.261246-0.035689-0.385445L700.684546 534.657169 700.684546 534.657169z" p-id="6119" fill="#01458e"></path></svg>