<?xml version="1.0" standalone="no"?><!DOCTYPE svg PUBLIC "-//W3C//DTD SVG 1.1//EN" "http://www.w3.org/Graphics/SVG/1.1/DTD/svg11.dtd"><svg class="icon" width="200px" height="200.00px" viewBox="0 0 1024 1024" version="1.1" xmlns="http://www.w3.org/2000/svg"><path d="M618.368 133.0944 279.5392 133.0944c-35.0848 0-63.6416 28.5312-63.6416 63.616l0 659.9424c0 35.0848 28.544 63.6416 63.6416 63.6416l473.1136 0c35.0848 0 63.6416-28.544 63.6416-63.6416L816.2944 339.0464 618.368 133.0944zM624.2304 207.8464l120.8064 125.696L640.256 333.5424c-8.832 0-16.0256-7.2064-16.0256-16.0512L624.2304 207.8464zM768.704 856.6784c0 4.2752-1.6512 8.2944-4.6848 11.3408-3.0336 3.0464-7.0656 4.7232-11.3536 4.7232L279.5392 872.7424c-8.8576 0-16.0512-7.2064-16.0512-16.0512l0-659.968c0-8.8448 7.2064-16.0384 16.0512-16.0384L576.64 180.6848l0 136.8064c0 35.0848 28.5312 63.6416 63.616 63.6416l128.448 0L768.704 856.6784z" fill="#10458e" /><path d="M637.1968 426.3936 569.5744 426.3936 512.5632 516.0448 457.5232 426.3936 385.9456 426.3936 476.3776 560.0768 378.0864 707.136 447.6672 707.136 510.1952 610.0224 571.5328 707.136 645.0688 707.136 547.1488 560.4736Z" fill="#10458e" /></svg>